<svg xmlns="http://www.w3.org/2000/svg" width="14.484" height="13.578" viewBox="0 0 14.484 13.578"><defs><style>.a{fill:#fff;}</style></defs><g transform="translate(0 -0.75)"><path class="a" d="M1.056,17.052H2.565A1.057,1.057,0,0,0,3.621,16V9.056A1.057,1.057,0,0,0,2.565,8H1.056A1.057,1.057,0,0,0,0,9.056V16A1.057,1.057,0,0,0,1.056,17.052Z" transform="translate(0 -2.875)"/><path class="a" d="M10.687.75c-.6,0-.905.3-.905,1.81,0,1.434-1.389,2.588-2.282,3.182v7.476a14.066,14.066,0,0,0,5.9,1.11h.966a2.41,2.41,0,0,0,2.378-2L17.422,8.4a2.413,2.413,0,0,0-2.378-2.824H12.2a5.827,5.827,0,0,0,.453-2.414A2.216,2.216,0,0,0,10.687.75Z" transform="translate(-2.974)"/></g></svg>