<svg xmlns="http://www.w3.org/2000/svg" width="19.602" height="15.927" viewBox="0 0 19.602 15.927"><defs><style>.a{fill:#fff;}</style></defs><g transform="translate(0 -48)"><g transform="translate(0 48)"><path class="a" d="M19.6,49.885a8.378,8.378,0,0,1-2.315.635A4,4,0,0,0,19.054,48.3a8.031,8.031,0,0,1-2.548.973A4.018,4.018,0,0,0,9.555,52.02a4.138,4.138,0,0,0,.093.916,11.375,11.375,0,0,1-8.283-4.2A4.02,4.02,0,0,0,2.6,54.1a3.969,3.969,0,0,1-1.816-.495v.044A4.037,4.037,0,0,0,4,57.6a4.011,4.011,0,0,1-1.054.132,3.553,3.553,0,0,1-.761-.069,4.057,4.057,0,0,0,3.755,2.8A8.075,8.075,0,0,1,.962,62.178,7.527,7.527,0,0,1,0,62.123a11.313,11.313,0,0,0,6.165,1.8A11.359,11.359,0,0,0,17.6,52.491c0-.178-.006-.349-.015-.519A8.017,8.017,0,0,0,19.6,49.885Z" transform="translate(0 -48)"/></g></g></svg>